PathFileType	4	(X/Y/Z)	Patient4_TMGait_0pt4_01_right_14.trc.trc
DataRate	CameraRate	NumFrames	NumMarkers	Units	OrigDataRate	OrigDataStartFrame	OrigNumFrames
77.777777777778	77.777777777778	4	33	mm	77.777777777778	1	       141
Frame#	Time	Sacral			L.Shoulder			Chest			R.Shoulder			Neck			R.ASIS			L.ASIS			R.Thigh.Superior			R.Thigh.Lateral			R.Thigh.Inferior			R.Patella			L.Thigh.Superior			L.Thigh.Lateral			L.Thigh.Inferior			L.Patella			L.Shank.Superior			L.Shank.Lateral			L.Shank.Inferior			R.Shank.Superior			R.Shank.Lateral			R.Shank.Inferior			R.Heel			R.Midfoot.Superior			R.Midfoot.Lateral			R.Toe			L.Heel			L.Midfoot.Lateral			L.Midfoot.Superior			L.Toe			L.Elbow			L.Wrist			R.Elbow			R.Wrist			
		X1	Y1	Z1	X2	Y2	Z2	X3	Y3	Z3	X4	Y4	Z4	X5	Y5	Z5	X6	Y6	Z6	X7	Y7	Z7	X8	Y8	Z8	X9	Y9	Z9	X10	Y10	Z10	X11	Y11	Z11	X12	Y12	Z12	X13	Y13	Z13	X14	Y14	Z14	X15	Y15	Z15	X16	Y16	Z16	X17	Y17	Z17	X18	Y18	Z18	X19	Y19	Z19	X20	Y20	Z20	X21	Y21	Z21	X22	Y22	Z22	X23	Y23	Z23	X24	Y24	Z24	X25	Y25	Z25	X26	Y26	Z26	X27	Y27	Z27	X28	Y28	Z28	X29	Y29	Z29	X30	Y30	Z30	X31	Y31	Z31	X32	Y32	Z32	X33	Y33	Z33	

1	18.050000000000	833.157723463759	1010.747859331240	447.179575826883	1025.694571404422	1428.189145853259	249.553294128055	1123.396394159149	1366.837255881198	415.813841967138	1037.696680157439	1449.181570547405	585.276002247924	1007.080577229026	1498.319853115859	407.506253935224	1061.637844166564	949.921466546087	567.409829377506	1049.481241591432	961.666461442623	293.470162829653	1131.702421306661	767.239910196616	545.767193571651	1078.878964255376	649.339612654717	619.311544365061	1167.292027082113	601.395124495414	544.154650311033	1175.033442773742	489.079713911668	569.118968256433	1094.906728416503	748.554262671438	323.171943494601	1003.881010546426	633.297681384654	268.947331203491	1088.594681169357	554.999188916904	331.715213940124	1087.314945187775	485.612260345407	344.003224561448	1055.983852735667	413.558617191738	338.427613009539	960.235007860264	303.847828003130	286.872871175520	1000.858730906032	191.200906965908	362.827139574482	1095.870171085285	418.775859402557	573.881477281213	972.526834953610	384.780918809678	633.409997525730	954.519288429848	276.566850832409	583.832130588237	750.358990778779	217.409726439912	556.805592651928	919.896794068281	159.525953755217	591.928555962529	810.544783587118	153.805230520077	625.682464960185	987.711429025191	47.763108836442	610.952922400838	864.664387486784	39.923248962892	405.768332297246	940.324824214384	35.652819910751	326.822987413712	1023.814846765587	95.564122500932	354.691874765012	1152.728744583267	41.325137920920	330.315684357093	1024.520245009589	1079.219525274176	123.812963582623	1163.912349905137	857.397559326448	101.703874361049	973.984229046485	1115.526176097995	725.920381202041	1055.148460873614	867.618254033556	747.723063388274	
2	18.062857142857	832.727513872178	1011.443754455835	446.766762037421	1026.342297975639	1428.301065447183	248.487846859342	1123.422022557501	1367.273320082244	415.201270152641	1037.379916827417	1450.096838485677	584.150281373506	1007.353268032682	1498.725077637629	406.609405561760	1060.883198170706	950.629939481038	567.166672280338	1049.291598007850	962.334178304122	293.250500376319	1132.953459920557	770.224657862695	544.480375884650	1083.028375370858	651.684672778176	618.633172215851	1171.495918112874	605.137841815928	542.644977345384	1181.507558348440	492.933709117181	567.722154923965	1092.535574497751	747.967705954757	323.440287475522	1000.218075491093	633.646777140105	268.823493484426	1083.649652499478	554.559443399691	331.947851715164	1081.566816791526	485.461003245730	344.314218982695	1050.463494027237	413.770248102065	338.445656852454	954.898431692874	304.015457399162	286.833083001216	995.391518277236	191.359866743428	362.833979701492	1103.397331476071	421.522163378185	572.790764084752	980.679659785505	385.507249774619	632.316496106649	964.403253411223	277.001078207002	582.831125782482	761.379816679120	214.247316600126	555.604596709838	931.777809752433	159.477611705933	591.135975064397	822.550773324787	152.131724924249	624.964709656004	1001.495248279137	49.061789173392	611.051843935203	859.164674918034	40.008378764453	405.674848512089	934.849574235581	35.666407811786	326.773149088130	1018.361691848365	95.560375167753	354.616036221546	1147.251539266372	41.256938565484	330.273181218946	1029.388044630893	1079.786302078127	122.268275927299	1174.762168530868	862.025982476540	101.166845008139	964.328365548945	1118.484038358447	723.098402893969	1036.051640299581	868.192816706352	744.136034811953	
3	18.075714285714	832.281557180041	1012.123940671082	446.374674972850	1026.981019683920	1428.405638200657	247.468108426561	1123.454334907395	1367.681679040083	414.618411658012	1037.090219174259	1450.978476915107	583.071676067329	1007.631948299509	1499.107058117545	405.790816313494	1060.126995833278	951.311536743578	566.944191574593	1049.083525077093	962.955909070853	293.049436847290	1134.144441761117	773.144382868230	543.229645225227	1087.079153969708	653.988830901486	617.980884752863	1175.569858538457	608.811858533723	541.155121362134	1187.836738285516	496.746601853795	566.352471146622	1090.179328697810	747.386577968534	323.731397588365	996.577319032450	633.985294944985	268.703688323636	1078.731263668804	554.123583650704	332.185450420850	1075.845579236560	485.305464632977	344.627590788844	1044.976995458168	413.973781141150	338.469612168454	949.599241682314	304.175357915042	286.796998297763	989.959410968261	191.511906446943	362.847796299687	1110.811049756766	424.211617335467	571.746582292258	988.723963681875	386.098250886897	631.252929367732	974.271571661649	277.278656806702	581.885633058565	772.419715876961	210.793319791749	554.459100764907	943.716344796541	159.260302445353	590.428940934485	834.615065909327	150.222492774822	624.326803656062	1015.410106745421	50.237883958810	611.255186729910	853.706566003493	40.088764632871	405.586669835946	929.416839367933	35.679191250474	326.727279512684	1012.949205019706	95.557482974662	354.545082905392	1141.818277912272	41.190993806143	330.232251777702	1034.161117203412	1080.340216420675	120.798800022481	1185.462336084331	866.652619005314	100.728659784748	954.826977379378	1121.435877996821	720.306708184115	1017.245079167518	868.843990978418	740.594805221968	
4	18.088571428571	831.806124557430	1012.773221406334	446.029016265305	1027.605978859090	1428.493326502854	246.546021027726	1123.504879010747	1368.030669568659	414.098941802079	1036.863038899228	1451.788757258778	582.092789411815	1007.927845349114	1499.441465601495	405.128066369276	1059.366626526933	951.931867437903	566.761364245163	1048.823019157894	963.483713410286	292.887240535656	1135.197040470093	775.910653700920	542.052324705497	1090.891685497306	656.185285985899	617.378143278751	1179.349902789998	612.314382688965	539.713554822966	1193.834959671161	500.455597277290	565.034775432306	1087.853598198705	746.811314018114	324.052907111107	992.974259945435	634.302047263381	268.591120408298	1073.865276532270	553.691614445703	332.425762117973	1070.182283072358	485.141094246682	344.938338355497	1039.557291391833	414.159434719037	338.500209480066	944.365991368501	304.321672616444	286.764995421251	984.587365610457	191.651029007184	362.870289108813	1117.974009953771	426.771568337377	570.784614733440	996.581388998868	386.391113701701	630.265972644168	984.142215171969	277.239555899418	581.048770797606	783.585169642804	206.726338554563	553.445663904740	955.825577172868	158.723000182176	589.882456530281	846.884408307767	147.842346682408	623.857834479454	1029.647815167894	51.231693863310	611.646546760507	848.318205077254	40.161635685424	405.507899899005	924.054457704113	35.690809424021	326.687890379248	1007.604471359734	95.556165669937	354.481838876872	1136.458071057202	41.128854419698	330.194250298350	1038.746377888630	1080.863693390551	119.489183061289	1195.853037056756	871.265568692363	100.505951972964	945.683639908859	1124.352766886931	717.604564430390	999.075963787628	869.625180892794	737.158814319290	
